<mxfile host="app.diagrams.net" agent="Mozilla/5.0 (Windows NT 10.0; Win64; x64) AppleWebKit/537.36 (KHTML, like Gecko) Chrome/131.0.0.0 Safari/537.36" version="25.0.3">
  <diagram name="Page-1" id="7c7SZZoC8oXcZaem8ttN">
    <mxGraphModel>
      <root>
        <mxCell id="0" />
        <mxCell id="1" parent="0" />
        <mxCell id="2" value="Client" style="ellipse;aspect=fixed;strokeWidth=2;whiteSpace=wrap;" vertex="1" parent="1">
          <mxGeometry x="417" y="8" width="58" height="58" as="geometry" />
        </mxCell>
        <mxCell id="3" value="Component" style="rhombus;strokeWidth=2;whiteSpace=wrap;" vertex="1" parent="1">
          <mxGeometry x="381" y="138" width="130" height="130" as="geometry" />
        </mxCell>
        <mxCell id="4" value="ConcreteComponent" style="whiteSpace=wrap;strokeWidth=2;" vertex="1" parent="1">
          <mxGeometry x="56" y="318" width="206" height="48" as="geometry" />
        </mxCell>
        <mxCell id="5" value="Decorator" style="whiteSpace=wrap;strokeWidth=2;" vertex="1" parent="1">
          <mxGeometry x="758" y="318" width="132" height="48" as="geometry" />
        </mxCell>
        <mxCell id="6" value="CondimentDecorator" style="whiteSpace=wrap;strokeWidth=2;" vertex="1" parent="1">
          <mxGeometry x="372" y="416" width="209" height="48" as="geometry" />
        </mxCell>
        <mxCell id="7" value="Milk" style="whiteSpace=wrap;strokeWidth=2;" vertex="1" parent="1">
          <mxGeometry x="631" y="416" width="90" height="48" as="geometry" />
        </mxCell>
        <mxCell id="8" value="Mocha" style="whiteSpace=wrap;strokeWidth=2;" vertex="1" parent="1">
          <mxGeometry x="771" y="416" width="106" height="48" as="geometry" />
        </mxCell>
        <mxCell id="9" value="Soy" style="whiteSpace=wrap;strokeWidth=2;" vertex="1" parent="1">
          <mxGeometry x="927" y="416" width="85" height="48" as="geometry" />
        </mxCell>
        <mxCell id="10" value="Whip" style="whiteSpace=wrap;strokeWidth=2;" vertex="1" parent="1">
          <mxGeometry x="1062" y="416" width="97" height="48" as="geometry" />
        </mxCell>
        <mxCell id="11" value="Espresso" style="whiteSpace=wrap;strokeWidth=2;" vertex="1" parent="1">
          <mxGeometry x="8" y="416" width="121" height="48" as="geometry" />
        </mxCell>
        <mxCell id="12" value="HouseBlend" style="whiteSpace=wrap;strokeWidth=2;" vertex="1" parent="1">
          <mxGeometry x="179" y="416" width="143" height="48" as="geometry" />
        </mxCell>
        <mxCell id="13" value="orders" style="curved=1;startArrow=none;endArrow=block;exitX=0.5;exitY=1;entryX=0.5;entryY=0;" edge="1" parent="1" source="2" target="3">
          <mxGeometry relative="1" as="geometry">
            <Array as="points" />
          </mxGeometry>
        </mxCell>
        <mxCell id="14" value="" style="curved=1;startArrow=none;endArrow=block;exitX=0;exitY=0.66;entryX=0.5;entryY=0;" edge="1" parent="1" source="3" target="4">
          <mxGeometry relative="1" as="geometry">
            <Array as="points">
              <mxPoint x="159" y="293" />
            </Array>
          </mxGeometry>
        </mxCell>
        <mxCell id="15" value="" style="curved=1;startArrow=none;endArrow=block;exitX=1;exitY=0.62;entryX=0.5;entryY=0;" edge="1" parent="1" source="3" target="5">
          <mxGeometry relative="1" as="geometry">
            <Array as="points">
              <mxPoint x="824" y="293" />
            </Array>
          </mxGeometry>
        </mxCell>
        <mxCell id="16" value="" style="curved=1;startArrow=none;endArrow=block;exitX=0;exitY=0.7;entryX=0.5;entryY=0.01;" edge="1" parent="1" source="5" target="6">
          <mxGeometry relative="1" as="geometry">
            <Array as="points">
              <mxPoint x="476" y="391" />
            </Array>
          </mxGeometry>
        </mxCell>
        <mxCell id="17" value="" style="curved=1;startArrow=none;endArrow=block;exitX=0;exitY=0.96;entryX=0.5;entryY=0.01;" edge="1" parent="1" source="5" target="7">
          <mxGeometry relative="1" as="geometry">
            <Array as="points">
              <mxPoint x="676" y="391" />
            </Array>
          </mxGeometry>
        </mxCell>
        <mxCell id="18" value="" style="curved=1;startArrow=none;endArrow=block;exitX=0.5;exitY=1.01;entryX=0.5;entryY=0.01;" edge="1" parent="1" source="5" target="8">
          <mxGeometry relative="1" as="geometry">
            <Array as="points" />
          </mxGeometry>
        </mxCell>
        <mxCell id="19" value="" style="curved=1;startArrow=none;endArrow=block;exitX=1;exitY=0.97;entryX=0.5;entryY=0.01;" edge="1" parent="1" source="5" target="9">
          <mxGeometry relative="1" as="geometry">
            <Array as="points">
              <mxPoint x="970" y="391" />
            </Array>
          </mxGeometry>
        </mxCell>
        <mxCell id="20" value="" style="curved=1;startArrow=none;endArrow=block;exitX=1;exitY=0.74;entryX=0.5;entryY=0.01;" edge="1" parent="1" source="5" target="10">
          <mxGeometry relative="1" as="geometry">
            <Array as="points">
              <mxPoint x="1111" y="391" />
            </Array>
          </mxGeometry>
        </mxCell>
        <mxCell id="21" value="" style="curved=1;startArrow=none;endArrow=block;exitX=0.28;exitY=1.01;entryX=0.5;entryY=0.01;" edge="1" parent="1" source="4" target="11">
          <mxGeometry relative="1" as="geometry">
            <Array as="points">
              <mxPoint x="68" y="391" />
            </Array>
          </mxGeometry>
        </mxCell>
        <mxCell id="22" value="" style="curved=1;startArrow=none;endArrow=block;exitX=0.72;exitY=1.01;entryX=0.5;entryY=0.01;" edge="1" parent="1" source="4" target="12">
          <mxGeometry relative="1" as="geometry">
            <Array as="points">
              <mxPoint x="250" y="391" />
            </Array>
          </mxGeometry>
        </mxCell>
      </root>
    </mxGraphModel>
  </diagram>
</mxfile>
